/* XPM */
static char *_1797dd1c90d4762902c9823f2c2118dpGM6GiS3aWXB2Jbz[] = {
/* columns rows colors chars-per-pixel */
"32 32 8 1 ",
"  c #25131A",
". c #362030",
"X c #3D253B",
"o c #523B40",
"O c #895A45",
"+ c #BF704D",
"@ c #90919E",
"# c #ADC1CF",
/* pixels */
"......................XX..XXXXXX",
"......................XX..XXXXXX",
"XXXXXXXXXXXXXX..XXXXXXXXXXXXXXXX",
"XXXXXXXXXXXXXX..XXXXXXXXXXXXXXXX",
"XXXXXXXXXXXXXX..XXXXXXXXXXXXXXXX",
"XXXXXXXXXXXXXX..XXXXXXXXXXXXXXXX",
"XXXXXXXXXXXXXX..XXXXXXXXXXXXXXXX",
"XXXXXXXXXXXXXX..XXXXXXXXXXXXXXXX",
"XXXXXXXXXXXXXXXXXXXXXXXXXXXXXXXX",
"XXXXXXXXXX            XXXXXXXXXX",
"XXXXXXXXXX            XXXXXXXXXX",
"XXXXXXXX  ##++++++++##  XXXXXXXX",
"XXXXXXXX  ##++++++++##  XXXXXX..",
"XXXXXX  @@OOOOOOOOOOOO@@  XXXX..",
"XXXXXX  @@OOOOOOOOOOOO@@  XXXXXX",
"XXXXXX  ################  XXXXXX",
"XXXXXX  ################  XXXX..",
"XXXXXX      @@@@@@@@      XXXX..",
"XXXXXX      @@@@@@@@      XXXX..",
"XXXXXX  @@OOoo@@@@ooOO@@  XXXX..",
"XXXXXX  @@OOoo@@@@ooOO@@  XXXX..",
"XXXXXX  @@OOooooooooOO@@  XXXX..",
"..XXXX  @@OOooooooooOO@@  XXXX..",
"..XXXX  ##ooooOOOOoooo##  XXXX..",
"..XXXX  ##ooooOOOOoooo##  XXXX..",
"..XXXX  ##@@@@@@@@@@@@##  XXXX..",
"..XXXX  ##@@@@@@@@@@@@##  XXXX..",
"..XXXX                    XXXX..",
"XXXXXX                    XXXXXX",
"XXXXXXXXXXXXXXXXXXXXXXXXXXXXXXXX",
"XXXXXXXXXXXXXXXXXXXXXXXXXXXXXXXX",
"XXXXXXXXXXXXXXXXXXXXXXXXXXXXXXXX"
};
