/* XPM */
static char *_689a05d35254446f621406cde99a7cagxHfkxjXJIKXiPji[] = {
/* columns rows colors chars-per-pixel */
"32 32 77 1 ",
"  c black",
". c #050102",
"X c #3B2433",
"o c #42293C",
"O c #60302E",
"+ c #673934",
"@ c #693B36",
"# c #940006",
"$ c #9E0017",
"% c #97001A",
"& c #92001D",
"* c #97001C",
"= c #99001B",
"- c #9D001B",
"; c #B20008",
": c #B40009",
"> c #BE001B",
", c #B8001E",
"< c #BF001F",
"1 c #B90020",
"2 c #BE0022",
"3 c #D8000D",
"4 c #D70017",
"5 c #DC0017",
"6 c #E0001B",
"7 c #DB0029",
"8 c #DE002B",
"9 c #E10023",
"0 c #E40023",
"q c #E20024",
"w c #E40024",
"e c #E20028",
"r c #B6AF53",
"t c #B5B25B",
"y c #B8B25B",
"u c #E4D974",
"i c #797786",
"p c #7B7B8A",
"a c #7E7B89",
"s c #7F7D8B",
"d c #7B7B8C",
"f c #7E7E8E",
"g c #847A8B",
"h c #827E8C",
"j c #847E8F",
"k c #7E8090",
"l c #80808F",
"z c #828090",
"x c #9FA0AD",
"c c #A1A2AF",
"v c #A4A1AE",
"b c #A4A4AF",
"n c #A9A1AE",
"m c #A3A3B0",
"M c #A4A3B0",
"N c #A3A4B1",
"B c #BFC3CA",
"V c #C0C2C9",
"C c #C6C0C8",
"Z c #C3C5CB",
"A c #C4C4C9",
"S c #C0C3CD",
"D c #C4C3CD",
"F c #C1C4CD",
"G c #C4C6CE",
"H c #CCC0C9",
"J c gray87",
"K c #E2DCDB",
"L c #E0DFDC",
"P c #E5DDDF",
"I c #DDDEE0",
"U c #E0DFE2",
"Y c #DEE0E1",
"T c #E1E1E2",
"R c #E4E0E1",
"E c #E1E1E4",
"W c white",
/* pixels */
"XXXXXXXXXXXXXXXXXXXXXXooXXoooooo",
"XXXXXXXXXXXXXXXXXXXXXXooXXoooooo",
"ooooooooooooooXXoooooooooooooooo",
"ooooooooooooooXXoooooooooooooooo",
"ooooooooooooooXXoooooooooooooooo",
"oooooooooooo    oooooooooooooooo",
"ooooooooooo 1qqq ooooooooooooooo",
"oooooooooo -qq008 oooooooooooooo",
"ooooooo  o 1wq96e oooooooooooooo",
"ooooooo 8 1<q>gP:   oooooooooooo",
"ooooooo 11<<<#vVCSVT ooooooooooo",
"oooooooo =11#nSVVVVVI oooooooooo",
"ooooooooo   hDVBVVVBJJ oooooooXX",
"ooooooooooo fVVVVVJJJJT ooooooXX",
"ooooooooooo fSYp f f f  oooooooo",
"ooooooooooo kffm m m N ooooooooo",
"oooooooooo  fffF F F G oooooooXX",
"ooooooooo bFYdjfmcmxF T ooooooXX",
"oooooooo McSVR3HSVVIK4CT oooooXX",
"oooooooo hmcca,5DVVVL;vm    ooXX",
"oooooooo  FSZa,5mFVVIMhzzfF ooXX",
"ooooooo 7 cca  VmmVVMhp ++h ooXX",
"XXooooo 1 hf uu          +h ooXX",
"XXooooo 1 VVOuWWWWWWWWWWW   ooXX",
"XXooooo 1 AUsriiiiiiiiiiTW  ooXX",
"XXooooo 1*   tLLLLLLLLLL  h ooXX",
"XXoooo 82-=  yy.        @+h ooXX",
"XXooo  1$-=        cSE hhh oooXX",
"oooo 71-==% lffl & hhfz   oooooo",
"oooooooooooooooooooooooooooooooo",
"oooooooooooooooooooooooooooooooo",
"oooooooooooooooooooooooooooooooo"
};
