/* XPM */
static char *c5cef04dcc6b475799976921e62a9313dywjncVd3chXtn7y[] = {
/* columns rows colors chars-per-pixel */
"32 32 83 1 ",
"  c black",
". c #362030",
"X c #3D253B",
"o c #5B2E29",
"O c #633A31",
"+ c #643A32",
"@ c #633A34",
"# c #8C0000",
"$ c #930F0E",
"% c #950E0D",
"& c #930F10",
"* c #8F1313",
"= c #8A1215",
"- c #911112",
"; c #941112",
": c #A80000",
"> c #AE1414",
", c #AF1817",
"< c #AF1919",
"1 c #B31210",
"2 c #B11717",
"3 c #B41516",
"4 c #B01718",
"5 c #B11819",
"6 c #CB0000",
"7 c #CA060A",
"8 c #CF0A08",
"9 c #D30D0E",
"0 c #D71A1A",
"q c #D51C1B",
"w c #D61B1C",
"e c #D31E1E",
"r c #D41D1E",
"t c #CE1F22",
"y c #D01E20",
"u c #D51D20",
"i c #D12224",
"p c #B5B143",
"a c #B5B44D",
"s c #DFD960",
"d c #DEDA65",
"f c #E0DB64",
"g c #7A7888",
"h c #7F7C8B",
"j c #7B7A8C",
"k c #7C7C8C",
"l c #7F7F90",
"z c #847B8D",
"x c #837F8E",
"c c #807E90",
"v c #857F92",
"b c #7F8091",
"n c #82818E",
"m c #808192",
"M c #848092",
"N c #848294",
"B c #A2A2AF",
"V c #A3A3B1",
"C c #A5A2B0",
"Z c #A3A4B2",
"A c #A5A4B3",
"S c #A4A3B4",
"D c #AAA3B0",
"F c #C2C3CB",
"G c #C7C1CA",
"H c #C3C4CB",
"J c #C5C5CB",
"K c #C2C3CC",
"L c #C4C3CC",
"P c #C2C4CF",
"I c #C5C4CF",
"U c #CCC2CB",
"Y c #C4C4D0",
"T c #DFDFDF",
"R c #E2DDDC",
"E c #E1E0DD",
"W c #DEDFE1",
"Q c #E5DEE0",
"! c #DFE1E2",
"~ c #E1E0E3",
"^ c #E4E1E2",
"/ c #E3E3E5",
"( c #FFFFFD",
/* pixels */
"......................XX..XXXXXX",
"......................XX..XXXXXX",
"XXXXXXXXXXXXXX..XXXXXXXXXXXXXXXX",
"XXXXXXXXXXXXXX..XXXXXXXXXXXXXXXX",
"XXXXXXXXXXXXXX..XXXXXXXXXXXXXXXX",
"XXXXXXXXXXXX    XXXXXXXXXXXXXXXX",
"XXXXXXXXXXX ,rqe XXXXXXXXXXXXXXX",
"XXXXXXXXXX ;q000y XXXXXXXXXXXXXX",
"XXXXXXX  X 50009u XXXXXXXXXXXXXX",
"XXXXXXX i 53w1zQ:   XXXXXXXXXXXX",
"XXXXXXX <4322#CFLPH~ XXXXXXXXXXX",
"XXXXXXXX -25#DPKKKKF~ XXXXXXXXXX",
"XXXXXXXXX   xIPPKKFFT~ XXXXXXX..",
"XXXXXXXXXXX lKFPPKWTTT~ XXXXXX..",
"XXXXXXXXXXX cK!k k k k  XXXXXXXX",
"XXXXXXXXXXX mlkA A A A XXXXXXXXX",
"XXXXXXXXXX  kclI Y Y Y XXXXXXX..",
"XXXXXXXXX AI~kvkCVSBI ~ XXXXXX..",
"XXXXXXXX AVYP^6UKKFWR7G~ XXXXX..",
"XXXXXXXX mZBVh>8LKKFR:CC    XX..",
"XXXXXXXX  PKI   AIIP!Dm mcY XX..",
"XXXXXXX t VA fd          Ox XX..",
"..XXXXX < ccns((((((((((( m XX..",
"..XXXXX < PLofgjjjjjjjjg~(  XX..",
"..XXXXX < J~xpE~~~~~~~~~~ m XX..",
"..XXXXX 5*   aa          Om XX..",
"..XXXX y4$-      mmCPJ @+Om XX..",
"..XXX  2%&- AY/    CP/ mmM XXX..",
"XXXX t<$&&* mbkn = mccN   XXXXXX",
"XXXXXXXXXXXXXXXXXXXXXXXXXXXXXXXX",
"XXXXXXXXXXXXXXXXXXXXXXXXXXXXXXXX",
"XXXXXXXXXXXXXXXXXXXXXXXXXXXXXXXX"
};
