/* XPM */
static char *_205636839664907ffff3138d96764ad2C6m2hV9S2FQfRce[] = {
/* columns rows colors chars-per-pixel */
"32 32 69 1 ",
"  c black",
". c #090103",
"X c #402835",
"o c #462C3D",
"O c #653132",
"+ c #6C3A38",
"@ c #9D000F",
"# c #A5001F",
"$ c #BF0016",
"% c #9B0023",
"& c #A20021",
"* c #A60022",
"= c #E6001A",
"- c #C30027",
"; c #C40026",
": c #CA0023",
"> c #CB0026",
", c #C50028",
"< c #CA0028",
"1 c #DE0023",
"2 c #EA0021",
"3 c #EE0024",
"4 c #E9002E",
"5 c #EE002D",
"6 c #F1002B",
"7 c #F0002D",
"8 c #EC0030",
"9 c #B7AD5E",
"0 c #B5B065",
"q c #E7D77E",
"w c #787684",
"e c #7D7A87",
"r c #7A7A88",
"t c #7C7B8B",
"y c #7D7D8B",
"u c #7B7E8D",
"i c #7D7D8C",
"p c #847989",
"a c #817D8A",
"s c #837D8D",
"d c #82808F",
"f c #9C9DA9",
"g c #A89FAC",
"h c #9FA1AD",
"j c #A3A0AC",
"k c #A6A1AE",
"l c #BCBFC4",
"z c #C1B8C0",
"x c #C0BFC7",
"c c #CCBEC7",
"v c #BEC1C7",
"b c #BEC2CB",
"n c #C3C3C7",
"m c #C3C2CB",
"M c #C4C0C8",
"N c #C1C4C9",
"B c #C0C2CC",
"V c #C1C4CC",
"C c #DCD5D4",
"Z c #D6D7D9",
"A c #D9D8DB",
"S c #DFDEDB",
"D c #DEDFDF",
"F c #E5DCDE",
"G c #DDDFE0",
"H c #E4DFE0",
"J c #DFE0E0",
"K c #E0E0E3",
"L c white",
/* pixels */
"XXXXXXXXXXXXXXXXXXXXXXooXXoooooo",
"XXXXXXXXXXXXXXXXXXXXXXooXXoooooo",
"ooooooooooooooXXoooooooooooooooo",
"ooooooooooooooXXoooooooooooooooo",
"ooooooooooooooXXoooooooooooooooo",
"oooooooooooooooooooooooooooooooo",
"oooooooooooo    oooooooooooooooo",
"ooooooooooo ;765 ooooooooooooooo",
"oooooooooo *66665 oooooooooooooo",
"ooooooo  o ;66637 oooooooooooooo",
"ooooooo 8 ,>6:pF$   oooooooooooo",
"ooooooo ;;>>;@jvMbvJ ooooooooooo",
"oooooooo &;;@gbbbvbxD ooooooooXX",
"ooooooooo   ambbbbvvDD oooooooXX",
"ooooooooooo ibvbbbDDDDK oooooooo",
"ooooooooooo ibGr y t t  oooooooo",
"ooooooooooo iitj j j j oooooooXX",
"oooooooooo  yiim V V V oooooooXX",
"ooooooooo jmDrstjhjfm K ooooooXX",
"oooooooo ffBbH=cbblZC1zA    ooXX",
"oooooooo  bbN  2jmmbDki siB ooXX",
"ooooooo 4 hjeqq          +y ooXX",
"XXooooo , ii qLLLLLLLLLLL s ooXX",
"XXooooo , bmOqwwwwwwwwwwSL  ooXX",
"XXooooo , nGy9SSSSSSSSSSK s ooXX",
"XXooooo ;&   00          +i ooXX",
"XXoooo 4<*&    . wwjbb  ++s ooXX",
"XXooo  ;#*& jbK    jbK sss oooXX",
"oooo 4-#&&& iuya % siid   oooooo",
"oooooooooooooooooooooooooooooooo",
"oooooooooooooooooooooooooooooooo",
"oooooooooooooooooooooooooooooooo"
};
