/* XPM */
static char *ec93b3c2c1c2411aa18a59a6a787942cF9AoizaGsephbUem[] = {
/* columns rows colors chars-per-pixel */
"32 32 35 1 ",
"  c #25131A",
". c #27151D",
"X c #28151F",
"o c #362030",
"O c #3D253B",
"+ c #593756",
"@ c #754C42",
"# c #7F5343",
"$ c #835644",
"% c #875945",
"& c #895A45",
"* c #886E52",
"= c #8C7254",
"- c #B0674A",
"; c #B3694B",
": c #B4694B",
"> c #BB6E4C",
", c #BD6F4D",
"< c #BF704D",
"1 c #807F8C",
"2 c #838390",
"3 c #848390",
"4 c #8C8D9A",
"5 c #8E8F9C",
"6 c #8F909D",
"7 c #90919E",
"8 c #B19D83",
"9 c #8C99A6",
"0 c #8F9DAA",
"q c #93A1AE",
"w c #A0B1BF",
"e c #A5B8C6",
"r c #A8BBC8",
"t c #A9BCCA",
"y c #ADC1CF",
/* pixels */
"oooooooooooooo          ooOOOOOO",
"oooooooooooooo          ooOOOOOO",
"OOOOOOOOOOOO  ==888888==  OOOOOO",
"OOOOOOOOOOOO  ==888888==  OOOOOO",
"OOOOOOOOOO  ==8888888888==  OOOO",
"OOOOOOOOOO  ==8888888888==  OOOO",
"OOOOOOOOOO    ++88  ++++88  OOOO",
"OOOOOOOOOO    ++88  ++++88  OOOO",
"OOOO344445      88      88  OOOO",
"OOOO477777      88      88  OOOO",
"OO47yyyyOO  8888888888==  OOOOOO",
"OO67ryyeOO  8888888888==  OOOOOO",
"12ywOO&#OOOO  88  88==    OOOOoo",
"77t0OO$#OOOO  88  88==    OOOOoo",
"yyOOOO--OOOOOO          ==  OOOO",
"9qOOOO:;OOOOOO          ==  OOOO",
"OOOOOO,,OOOO    ==  <<&&88  OOoo",
"OOOOOO<<OOOO    ==  <<&&88  OOoo",
"OOOO@#&&    =*    <<&&    88  oo",
"OOOO%&&&    ==    <<&&    88  oo",
"OOOOOO  8888    <<yy  ==  ==  oo",
"OOOOOO  8888 X  <<yy  ==  ==  oo",
"ooOOOO      OO  &&  88==      oo",
"ooOOOO   .  OO  &&  88==      oo",
"ooOOOOOO$#OOOO        ==  OOOOoo",
"ooOOOOOO$%OOOO        ==  OOOOoo",
"ooOOOOOO:<OOOO  88  OO  88  OOoo",
"ooOOOOOO><OOOO  88  OO  88  OOoo",
"OOOOOOOO&&OOOO  ==  OO  ==  OOOO",
"OOOOOOOO&&OOOO  ==  OO  ==  OOOO",
"OOOOOOOO&&OOOOOOOOOOOOOOOOOOOOOO",
"OOOOOOOO&&OOOOOOOOOOOOOOOOOOOOOO"
};
