/* XPM */
static char *_f6fa2cc5ce24d5588b8c0adda5932e9Vm4TMt9JH2niwsYb[] = {
/* columns rows colors chars-per-pixel */
"32 32 10 1 ",
"  c #25131A",
". c #362030",
"X c #3D253B",
"o c #593756",
"O c #895A45",
"+ c #8C7254",
"@ c #BF704D",
"# c #90919E",
"$ c #B19D83",
"% c #ADC1CF",
/* pixels */
"..............          ..XXXXXX",
"..............          ..XXXXXX",
"XXXXXXXXXXXX  ++$$$$$$++  XXXXXX",
"XXXXXXXXXXXX  ++$$$$$$++  XXXXXX",
"XXXXXXXXXX  ++$$$$$$$$$$++  XXXX",
"XXXXXXXXXX  ++$$$$$$$$$$++  XXXX",
"XXXX######    oo$$  oooo$$  XXXX",
"XXXX######    oo$$  oooo$$  XXXX",
"XX##%%%%XX      $$      $$  XXXX",
"XX##%%%%XX      $$      $$  XXXX",
"##%%XXOOXX  $$$$$$$$$$++  XXXXXX",
"##%%XXOOXX  $$$$$$$$$$++  XXXXXX",
"%%XXXX@@XXXX  $$  $$++    XXXX..",
"%%XXXX@@XXXX  $$  $$++    XXXX..",
"XXXXXX@@XXXX            ++  XXXX",
"XXXXXX@@XXXX            ++  XXXX",
"XXXXOOOO    ++  ++  @@OO$$  XX..",
"XXXXOOOO    ++  ++  @@OO$$  XX..",
"XXXXXX  $$$$      @@OO    $$  ..",
"XXXXXX  $$$$      @@OO    $$  ..",
"XXXXXX      XX  @@%%  ++  ++  ..",
"XXXXXX      XX  @@%%  ++  ++  ..",
"..XXXXXXOOXXXX  OO  $$++      ..",
"..XXXXXXOOXXXX  OO  $$++      ..",
"..XXXXXX@@XXXX        ++  XXXX..",
"..XXXXXX@@XXXX        ++  XXXX..",
"..XXXXXXOOXXXX  $$  XX  $$  XX..",
"..XXXXXXOOXXXX  $$  XX  $$  XX..",
"XXXXXXXXOOXXXX  ++  XX  ++  XXXX",
"XXXXXXXXOOXXXX  ++  XX  ++  XXXX",
"XXXXXXXXXXXXXXXXXXXXXXXXXXXXXXXX",
"XXXXXXXXXXXXXXXXXXXXXXXXXXXXXXXX"
};
