/* XPM */
static char *bce27ebe9a4a4ae4cade4f9fca207106lHAvySze7FuBAwLW[] = {
/* columns rows colors chars-per-pixel */
"32 32 53 1 ",
"  c #25131A",
". c #26141C",
"X c #291620",
"o c #2B1823",
"O c #362030",
"+ c #3B2438",
"@ c #3D253B",
"# c #593756",
"$ c #684340",
"% c #6B4540",
"& c #6E4841",
"* c #714941",
"= c #754C42",
"- c #794F42",
"; c #7A5043",
": c #7F5343",
"> c #7F664C",
", c #716D7A",
"< c #805343",
"1 c #825544",
"2 c #845744",
"3 c #865844",
"4 c #895A45",
"5 c #925545",
"6 c #9C5B46",
"7 c #A05D47",
"8 c #8A7053",
"9 c #8B7154",
"0 c #8C7254",
"q c #A66148",
"w c #AF664A",
"e c #B1674A",
"r c #B3684B",
"t c #BA6D4C",
"y c #BD6F4D",
"u c #BF704D",
"i c #797885",
"p c #807E8B",
"a c #888895",
"s c #8B8B98",
"d c #8C8C99",
"f c #8F909D",
"g c #90919E",
"h c #B19D83",
"j c #8793A0",
"k c #8995A2",
"l c #8B98A5",
"z c #99A9B6",
"x c #A4B6C4",
"c c #A5B8C6",
"v c #A8BBC8",
"b c #A9BCCA",
"n c #ADC1CF",
/* pixels */
"OOOOOOOOOOOOOOOOOOOOOOOOOO@@@@@@",
"OOOOOOOOOOOOOOOOOOOOOOOOOO@@@@@@",
"@@@@@@@@@@@@@@  .       +@@@@@@@",
"@@@@@@@@@@@@@@.         +@@@@@@@",
"@@@@@@@@@@@@  00hhhhhh00  @@@@@@",
"@@@@@@@@@@@@  00hhhhhh00  @@@@@@",
"@@@@pdddda  00hhhhhhhhhh08  @@@@",
"@@@@dgggas  00hhhhhhhhhh00  @@@@",
"@@dgnnnn@@    ##hh  ####hh  @@@@",
"@@fgvnnc@@    ##hh  ####hh  @@@@",
",inz@@1:@@      hh      hh  @@@@",
"dgbk@@--@@      hh      hh  @@@@",
"nx@@@@q6@@  hhhhhhhhhh00  @@@@OO",
"jl@@@@r7@@  hhhhhhhhhh00  @@@@OO",
"@@@@@@yt@@@@  hh  hh00    @@@@@@",
"@@@@@@uu@@@@  hh  hh00    @@@@@@",
"@@@@*;44    9>  00  uu44hh  @@OO",
"@@@@2444    00  00  uu44hh  @@OO",
"@@@@@@  hhhh      uu44    hh  OO",
"@@@@@@  hhhh X    uu44    hh  OO",
"@@@@@@      @@  uunn  00  00  OO",
"@@@@@@   Xo.@@  uunn  00  00  OO",
"OO@@@@@@&%@@@@  44  hh00      OO",
"OO@@@@@@$=@@@@  44  hh00      OO",
"OO@@@@@@5w@@@@        00  @@@@OO",
"OO@@@@@@7e@@@@        00  @@@@OO",
"OO@@@@@@:<@@@@  hh  @@  hh  @@OO",
"OO@@@@@@11@@@@  hh  @@  hh  @@OO",
"@@@@@@@@13@@@@  00  @@  00  @@@@",
"@@@@@@@@14@@@@  00  @@  00  @@@@",
"@@@@@@@@@@@@@@@@@@@@@@@@@@@@@@@@",
"@@@@@@@@@@@@@@@@@@@@@@@@@@@@@@@@"
};
