/* XPM */
static char *b11bef6f041844ab906c29d15dfc010bm2GmnBaOBRZngYW4[] = {
/* columns rows colors chars-per-pixel */
"32 32 37 1 ",
"  c #25131A",
". c #26141C",
"X c #28151F",
"o c #362030",
"O c #3B2438",
"+ c #3D253B",
"@ c #593756",
"# c #754C42",
"$ c #7F5343",
"% c #835644",
"& c #875945",
"* c #895A45",
"= c #886E52",
"- c #8A7053",
"; c #8C7254",
": c #B0674A",
"> c #B3694B",
", c #B4694B",
"< c #BB6E4C",
"1 c #BD6F4D",
"2 c #BF704D",
"3 c #807F8C",
"4 c #838390",
"5 c #848390",
"6 c #8C8D9A",
"7 c #8E8F9C",
"8 c #8F909D",
"9 c #90919E",
"0 c #B19D83",
"q c #8C99A6",
"w c #8F9DAA",
"e c #93A1AE",
"r c #A0B1BF",
"t c #A5B8C6",
"y c #A8BBC8",
"u c #A9BCCA",
"i c #ADC1CF",
/* pixels */
"oooooooooooooooooooooooooo++++++",
"oooooooooooooooooooooooooo++++++",
"++++++++++++++  .       O+++++++",
"++++++++++++++.         O+++++++",
"++++++++++++  ;;000000;;  ++++++",
"++++++++++++  ;;000000;;  ++++++",
"++++++++++  ;;0000000000;-  ++++",
"++++++++++  ;;0000000000;;  ++++",
"++++566667    @@00  @@@@00  ++++",
"++++699999    @@00  @@@@00  ++++",
"++69iiii++      00      00  ++++",
"++89yiit++      00      00  ++++",
"34ir++*$++  0000000000;;  ++++oo",
"99uw++%$++  0000000000;;  ++++oo",
"ii++++::++++  00  00;;    ++++++",
"qe++++,>++++  00  00;;    ++++++",
"++++++11++++    ;;  22**00  ++oo",
"++++++22++++    ;;  22**00  ++oo",
"++++#$**    ;=    22**    00  oo",
"++++&***    ;;    22**    00  oo",
"++++++  0000    22ii  ;;  ;;  oo",
"++++++  0000 X  22ii  ;;  ;;  oo",
"oo++++      ++  **  00;;      oo",
"oo++++   .  ++  **  00;;      oo",
"oo++++++%$++++        ;;  ++++oo",
"oo++++++%&++++        ;;  ++++oo",
"oo++++++,2++++  00  ++  00  ++oo",
"oo++++++<2++++  00  ++  00  ++oo",
"++++++++**++++  ;;  ++  ;;  ++++",
"++++++++**++++  ;;  ++  ;;  ++++",
"++++++++**++++++++++++++++++++++",
"++++++++**++++++++++++++++++++++"
};
