/* XPM */
static char *cf92e87d4e584f80bc2e18bc673d7c15GpUCfUbLUpbFwdTP[] = {
/* columns rows colors chars-per-pixel */
"32 32 10 1 ",
"  c #25131A",
". c #362030",
"X c #3D253B",
"o c #895A45",
"O c #BC4C51",
"+ c #BF704D",
"@ c #D1851E",
"# c #FFD569",
"$ c #90919E",
"% c #ADC1CF",
/* pixels */
"......................XX..XXXXXX",
"......................XX..XXXXXX",
"XXXXXXXXXXXXXX..XXXXXXXXXXXXXXXX",
"XXXXXXXXXXXXXX..    XXXXXXXXXXXX",
"XXXXXXXXXXXXXX..    XXXXXXXXXXXX",
"XXXXXXXXXXXXXX  OOOO  XXXXXXXXXX",
"XXXXXXXXXXXXXX  OOOO  XXXXXXXXXX",
"XXXXXXXXXXXX  OOOO  XXXXXXXXXXXX",
"XXXXXXXXXXXX  OOOO  XXXXXXXXXXXX",
"XXXXXXXXXX  OOOOOOOO  XXXXXXXXXX",
"XXXXXXXXXX  OOOOOOOO  XXXXXXXXXX",
"XXXXXXXX  OOOO@@OOOOOO  XXXXXXXX",
"XXXXXXXX  OOOO@@OOOOOO  XXXXXX..",
"XXXXXXXX  OOOO##@@OOOO  XXXXXX..",
"XXXXXXXX  OOOO##@@OOOO  XXXXXXXX",
"XXXXXXXXXX  @@####OO  XXXXXXXXXX",
"XXXXXXXXXX  @@####OO  XXXXXXXX..",
"XXXXXXXX  $$%%++++%%$$  XXXXXX..",
"XXXXXXXX  $$%%++++%%$$  XXXXXX..",
"XXXXXXXXXX  oooooooo  XXXXXXXX..",
"XXXXXXXXXX  oooooooo  XXXXXXXX..",
"XXXXXX        %%%%        XXXX..",
"..XXXX        %%%%        XXXX..",
"..XXXXXXXXXX    oo  XXXXXXXXXX..",
"..XXXXXXXXXX    oo  XXXXXXXXXX..",
"..XXXXXXXXXX  oooo  XXXXXXXXXX..",
"..XXXXXXXXXX  oooo  XXXXXXXXXX..",
"..XXXXXXXXXXXXXXXXXXXXXXXXXXXX..",
"XXXXXXXXXXXXXXXXXXXXXXXXXXXXXXXX",
"XXXXXXXXXXXXXXXXXXXXXXXXXXXXXXXX",
"XXXXXXXXXXXXXXXXXXXXXXXXXXXXXXXX",
"XXXXXXXXXXXXXXXXXXXXXXXXXXXXXXXX"
};
