/* XPM */
static char *_8c04a9ee45c45dabed40ee1b7e81adawbh0C1VTwWw8Hkm1[] = {
/* columns rows colors chars-per-pixel */
"32 32 10 1 ",
"  c #25131A",
". c #3D253B",
"X c #422C3B",
"o c #4C2F49",
"O c #483040",
"+ c #4F3740",
"@ c #543740",
"# c #593756",
"$ c #6E4A48",
"% c #78514F",
/* pixels */
"##oo##############oooooooooooooo",
"##oo##############oooooooooooooo",
"oo$$$$$$$$$$$$$$$$$$$$$$$$$$$$oo",
"oo$$$$$$$$$$$$$$$$$$$$$$$$$$$$oo",
"oo$$$$$$$$$$$$$$$$$$$$$$$$$$$$oo",
"oo$$$$$$$$$$$$$$$$$$$$$$$$$$$$oo",
"oo%%%%%%%%%%%%%%%%%%%%%%%%%%%%oo",
"oo%%%%%%%%%%%%%%%%%%%%%%%%%%%%oo",
"..@@@@@@@@@@@@@@@@@@@@@@@@@@@@..",
"..@@@@@@@@@@@@@@@@@@@@@@@@@@@@..",
"..@@@@@@@@@@@@@@@@@@@@@@@@@@@@oo",
"..@@@@@@@@@@@@@@@@@@@@@@@@@@@@oo",
"..OO@@@@@@@@@@@@@@@@@@@@@@@@OO..",
"..OO@@@@@@@@@@@@@@@@@@@@@@@@OO..",
"  ..............................",
"  ..............................",
"..OO@@@@@@@@OO..OO@@@@@@@@@@OO..",
"..OO@@@@@@@@OO..OO@@@@@@@@@@OO..",
"..@@@@@@@@@@@@..@@@@@@@@@@@@@@  ",
"..@@@@@@@@@@@@..@@@@@@@@@@@@@@  ",
"  OO@@@@@@@@OO  OO@@@@@@@@@@OO..",
"  OO@@@@@@@@OO  OO@@@@@@@@@@OO..",
"......                    ....  ",
"......                    ....  ",
"  XX++++++++++++++++++++++++XX..",
"  XX++++++++++++++++++++++++XX..",
"  ++++++++++++++++++++++++++++  ",
"  ++++++++++++++++++++++++++++  ",
"  XXXXXXXXXXXXXXXXXXXXXXXXXXXX  ",
"  XXXXXXXXXXXXXXXXXXXXXXXXXXXX  ",
"                                ",
"                                "
};
