/* XPM */
static char *_3ee199d5bb848cea6600a4a77aacb5cxgCPK29vdeZ22lBr[] = {
/* columns rows colors chars-per-pixel */
"32 32 2 1 ",
"  c #362030",
". c #3D253B",
/* pixels */
"                      ..  ......",
"                      ..  ......",
"..............  ................",
"..............  ................",
"..............  ................",
"..............  ................",
"..............  ................",
"..............  ................",
"................................",
"................................",
"................................",
"................................",
"..............................  ",
"..............................  ",
"................................",
"................................",
"..............................  ",
"..............................  ",
"..............................  ",
"..............................  ",
"..............................  ",
"..............................  ",
"  ............................  ",
"  ............................  ",
"  ............................  ",
"  ............................  ",
"  ............................  ",
"  ............................  ",
"................................",
"................................",
"................................",
"................................"
};
