/* XPM */
static char *_e127de0971d43ff9f70550855fb8090bRq7klKn1W5qK14b[] = {
/* columns rows colors chars-per-pixel */
"32 32 8 1 ",
"  c #25131A",
". c #362030",
"X c #3D253B",
"o c #523B40",
"O c #895A45",
"+ c #BF704D",
"@ c #90919E",
"# c #ADC1CF",
/* pixels */
"......++++............++++XXXXXX",
"......++++............++++XXXXXX",
"XXXXXXOOOOXXXX..XXXXXXOOOOXXXXXX",
"XXXXXXOOOOXXXX..XXXXXXOOOOXXXXXX",
"XXXXXXOOOOXXXX..XXXXXXOOOOXXXXXX",
"XXXXXXOOOOXXXX..XXXXXXOOOOXXXXXX",
"    ++@@##++++++++++++##@@++    ",
"    ++@@##++++++++++++##@@++    ",
"    OOOOOOOOOOOOOOOOOOOOOOOO    ",
"    OOOOOOOOOOOOOOOOOOOOOOOO    ",
"      oooo            oooo      ",
"      oooo            oooo      ",
"      OOOO            OOOO      ",
"      OOOO            OOOO      ",
"      OOOO            OOOO      ",
"      OOOO            OOOO      ",
"      OOOO            OOOO      ",
"      OOOO            OOOO      ",
"      OOOO            OOOO      ",
"      OOOO            OOOO      ",
"      OOOO            OOOO      ",
"      OOOO            OOOO      ",
"    ++@@##++++++++++++##@@++    ",
"    ++@@##++++++++++++##@@++    ",
"    OOOOOOOOOOOOOOOOOOOOOOOO    ",
"    OOOOOOOOOOOOOOOOOOOOOOOO    ",
"      oooo            oooo      ",
"      oooo            oooo      ",
"      OOOO            OOOO      ",
"      OOOO            OOOO      ",
"      OOOO            OOOO      ",
"      OOOO            OOOO      "
};
