/* XPM */
static char *e60e8ca9531f4e11cb00a257db690bc2D6LQzYmfG5W63PIX[] = {
/* columns rows colors chars-per-pixel */
"26 27 12 1 ",
"  c #341C32",
". c #351D33",
"X c #361E34",
"o c #371F35",
"O c #382036",
"+ c #392137",
"@ c #3A2238",
"# c #3B2339",
"$ c #3C243A",
"% c #3D253B",
"& c #3E263C",
"* c #3F273D",
/* pixels */
"X..X++X..X++X..XXXX+XX...X",
"++++@@++++@@+++++@@@@++XX+",
"$$$$&&$@@$&&$$$$$$$&$$@@+@",
"&&$&&&$@@$&&&$&&&&&&&&$$+@",
"&&$&&&$@@$&&&$&&$&&&&$$@X+",
"&$$$&$@++@$&$$$&$$$$$$@@+@",
"&&$$$$@++@$$$$&&$$$$$$@@+@",
"&&$$&$@++@$&$$&&$$&&$$@@@$",
"$$@$$$@+X@$&&$$$$$$$$$$$$$",
"&$$$&&$@X@$&&$$$&&$$$$$$$$",
"&$$$&&@+X@$&&$$$$$$$$$$&@@",
"$@@@$$@+X@$&&$$$$$$$$$$&$$",
"$$$$$$@+X@$&&$$$$$$$$$$$$$",
"&&&&&&$@X@$&&$$$$$$$$$$$$$",
"$$$$$$@+X@$&&$$$$&$$$$$$$$",
"+XX+++X.X@$&&$$$$&$$$$$$@@",
"XXXXXXXX$$$$$&$$$$$$$$$&@@",
"@@@@@@@@$$$$$&$$&$$$$$$$@@",
"$$$$$$$$$$$$$$$$&$$$$$$$$$",
"&&&&&&&&$$$&$$$$$$$$$$$$$$",
"&&&&&&&&$$$&$$$$$&$$$$$$$$",
"$$$$$$$$$$$$$$$$$&$$$$&&$$",
"$$$$$$$$$$$$$$$$$$$$$$$$$$",
"$$$$$$$$$$$$$$$$$$$$$$$$$$",
"$$$$$$$$$$$&&$$$$$$$$$$$$$",
"$$$$$$$$$$$&&$$$$$$$$$$$$$",
"$$$$$$$$$$$&&$$$&&$$$$$$$&"
};
