/* XPM */
static char *b192174c78fa4d83dcf51ec5ee9b7d37SuKCleKcYEu1WzOR[] = {
/* columns rows colors chars-per-pixel */
"16 16 8 1 ",
"  c None",
". c #25131A",
"X c #373737",
"o c #895A45",
"O c #BF704D",
"+ c #62ABD4",
"@ c #90919E",
"# c #ADC1CF",
/* pixels */
"++            ++",
"+     ......   +",
"     .#@@@@@.   ",
"    .#@......   ",
"    .@@.#.#.#.  ",
"    .@#.#.#.#.  ",
"    .@#######.  ",
"    ..@@@..@.   ",
"   ..X.@@@@...  ",
"  .@#.XX.#.X#.  ",
"  .@#.X.@@#X#.. ",
"  .o..XX.#.X.o. ",
"  ...XOO.#.O... ",
"   .XXXXX.XXX.  ",
"+  .XXXX.o.XX. +",
"++            ++"
};
