/* XPM */
static char *a52660ff0d6443c7c20438931cf95719GlfWtyO8SFnG29Jg[] = {
/* columns rows colors chars-per-pixel */
"16 16 4 1 ",
"  c #25131A",
". c #717171",
"X c #895A45",
"o c #8F5F49",
/* pixels */
"   XXX    XXX   ",
"   XXX    XXX   ",
"  ..oooooooo..  ",
"  ..oooooooo..  ",
"  ..oooooooo..  ",
"   XXX    XXX   ",
"   XXX    XXX   ",
"  ..oooooooo..  ",
"  ..oooooooo..  ",
"  ..oooooooo..  ",
"   XXX    XXX   ",
"   XXX    XXX   ",
"  ..oooooooo..  ",
"  ..oooooooo..  ",
"  ..oooooooo..  ",
"   XXX    XXX   "
};
