/* XPM */
static char *_3d2007cdee5476dd317843dfccb62cdP9hgca9ur550vqNZ[] = {
/* columns rows colors chars-per-pixel */
"16 16 11 1 ",
"  c None",
". c #25131A",
"X c #593756",
"o c #895A45",
"O c #BC4C51",
"+ c #8C7254",
"@ c #BF704D",
"# c #90919E",
"$ c #A89780",
"% c #B19D83",
"& c #ADC1CF",
/* pixels */
"OO            OO",
"O    .....     O",
"    .+%%%+.     ",
"   .+%%%%%+.    ",
"   .%XX.%X..    ",
"   .%...%...    ",
"    .+%%%%%.    ",
"  ....+%.%.   ..",
" .##&......  .#.",
" .#&&o@.$.+..#&.",
" .....o@..%.#&. ",
"  .+.+.&@..%..  ",
"  ...+....@..   ",
"   .%. .%.      ",
"O  .+. .+.     O",
"OO            OO"
};
