/* XPM */
static char *badda83ca99d4da0d0873719d886e7821k82N3F3rVLkC4L6[] = {
/* columns rows colors chars-per-pixel */
"34 32 136 2 ",
"   c #1D0C15",
".  c #1F0D1A",
"X  c #210F1A",
"o  c #231317",
"O  c #24131B",
"+  c #28161F",
"@  c #29191E",
"#  c #261421",
"$  c #281723",
"%  c #2B1924",
"&  c #2E1C29",
"*  c #311F2B",
"=  c #34222D",
"-  c #38272E",
";  c #39282E",
":  c #362432",
">  c #392635",
",  c #3C2A34",
"<  c #3B243A",
"1  c #3D2A3A",
"2  c #4E2D36",
"3  c #41253E",
"4  c #422A3E",
"5  c #4B2C3D",
"6  c #4C303B",
"7  c #52313D",
"8  c #482744",
"9  c #432A41",
"0  c #4B2D43",
"q  c #492748",
"w  c #4C2D4A",
"e  c #512F43",
"r  c #502F4E",
"t  c #473144",
"y  c #4D3145",
"u  c #4C304A",
"i  c #543444",
"p  c #593645",
"a  c #5A3944",
"s  c #553449",
"d  c #583749",
"f  c #573849",
"g  c #5A394A",
"h  c #613D4C",
"j  c #654447",
"k  c #694643",
"l  c #6C4A46",
"z  c #66434C",
"x  c #6A474D",
"c  c #6D4B4C",
"v  c #6F4B4D",
"b  c #6D4A4E",
"n  c #6C494D",
"m  c #6C4C4D",
"M  c #6F4D4C",
"N  c #6E4C4D",
"B  c #6F4D4E",
"V  c #6D4B4A",
"C  c #714B4A",
"Z  c #714A4B",
"A  c #704D49",
"S  c #724C49",
"D  c #704D4B",
"F  c #734D4A",
"G  c #724C4B",
"H  c #704F4A",
"J  c #714A4D",
"K  c #724B4C",
"L  c #70494E",
"P  c #704C4C",
"I  c #734D4C",
"U  c #734C4D",
"Y  c #704E4D",
"T  c #714F4D",
"R  c #714D4F",
"E  c #704E4F",
"W  c #724E4E",
"Q  c #754F4C",
"!  c #744D4E",
"~  c #754E4F",
"^  c #73504C",
"/  c #73504E",
"(  c #72504F",
")  c #674351",
"_  c #654353",
"`  c #664550",
"'  c #684750",
"]  c #684752",
"[  c #6D4550",
"{  c #694853",
"}  c #6C4852",
"|  c #6D4953",
" . c #6F4C52",
".. c #6A4954",
"X. c #6F4954",
"o. c #6C4B54",
"O. c #6E4A54",
"+. c #6F4B55",
"@. c #6E4F54",
"#. c #6F4F54",
"$. c #6E4F55",
"%. c #6E4F57",
"&. c #6C4A58",
"*. c #704B53",
"=. c #704C50",
"-. c #704D51",
";. c #714D51",
":. c #704D53",
">. c #714E52",
",. c #734F53",
"<. c #744D52",
"1. c #764F52",
"2. c #704D54",
"3. c #714E54",
"4. c #734E55",
"5. c #704C56",
"6. c #724F56",
"7. c #754D55",
"8. c #774F58",
"9. c #745052",
"0. c #755153",
"q. c #765252",
"w. c #735054",
"e. c #765254",
"r. c #765256",
"t. c #755556",
"y. c #775556",
"u. c #795253",
"i. c #795255",
"p. c #785156",
"a. c #785456",
"s. c #755058",
"d. c #755258",
"f. c #775458",
"g. c #7B575B",
"h. c #7D555D",
/* pixels */
"t 9 9 0 0 0 9 0 0 6 6 6 6 6 5 5 5 5 0 0 0 0 0 0 0 0 0 0 q 8 q r 0 0 ",
"0 t 0 0 0 f g f 6 6 6 6 6 6 6 6 7 i i i i i i i 5 e e e e 0 0 w 0 0 ",
"0 y i 5 i _ &.{ @.@.@.@.@.@.@.@.>.>.>.2.2.2.5.2.2.2.X.} _ h p e 0 0 ",
"0 i i p h X.d.d.f.f.f.t.t.t.t.a.9.9.9.r.r.r.r.r.a.9.r.>.n j p 2 y y ",
"i 0 i z *.L L u.V V V V V V V V C C C C C C L C C V Q <.<.7.[ i y u ",
"s 5 i X.r.V k Q D D W W W D D D D W W W W W W W Q C Q p.p.h.8.p u u ",
"w 0 p } 9.V k l V V V V V V V V l V V V V V V V W k V c x 2.z 5 u u ",
"w s g z B D l k V V V V V V l l V V V V V V V V ^ k V W >.g.d.7 u u ",
"w 0 f ] >.k k D V V B B B V V V V V V V V V V V l k D D k B c 2 0 w ",
"0 0 d ] >.V l ^ V c m m c c V V V l V V V V V l l k V V k B V 7 0 w ",
"0 0 d `  .V V W W >.>.>.>.>.>.W W W W W >.W B W V k W ^ c w.2.a 0 w ",
"y i d h z j j x z m z z z z z z z z ] ] ] ] ` z z j m m z @...g 0 w ",
"y y i f g p a a i i i i i i i d d d f f f d d d i i i d d g d 0 u u ",
"0 0 0 0 0 5 5 5 5 5 5 5 5 5 5 0 0 0 0 0 0 0 0 0 5 4 5 5 0 0 0 9 0 0 ",
"1 1 4 1 3 3 3 3 4 4 4 4 4 4 9 9 9 9 9 9 9 9 9 4 4 4 4 4 9 9 9 9 9 4 ",
"< 1 < < < < < < < < < < < < < < < < < < < < < < > > > > < > : < < < ",
": 4 > # O % % + X O # O X # # # O $ O . $ $ O O O $ # O & = : 1 > 1 ",
": 1 : O O O O O + @ $ O O $ # X O $ O O # # O O   O O O % = : 1 > > ",
"1 1 : $ # O O @   o O X % > > & O $ O O O O O # O $ O O O $ & > 1 1 ",
"1 , * $ # O o @ O O O   % > : # O O O O O X O O O $ # O O O # = 1 > ",
"& & # X O     O O O O O % : : # O X X # O X O #   O O O O O $ > * & ",
"% & $ X O O O @ O O O + & = : * $ . X % $ # % % $ % $ % % O O * * & ",
"% : * O $ = = - ; = - = * # $ & = O O * = = = = , > = = = O   # * = ",
"$ : = O % , , , , ; , , = $ % , > # $ : , , 1 > 1 1 > , , % X # % = ",
"= % O X O O O O O O O O O O O O O O O O O O O O O O O O O O % = : & ",
"& $ O O O O O O O O O O O O O O O O O O O O O O O O O O O O $ = = $ ",
"$ O O O O O O O O O O O O O O O O O O O O O O O O O O O O O O $ $ O ",
"O O O O O O O O O O O O O O O O O O O O O O O O O O O O O O O O O O ",
"o o o O O O O O O O O O O O O O O O O O O O O O O o O O O o o O o o ",
"o o O O O O O O O O O O O O O O O O O O O O O O O o O O O O o O o o ",
"O O O O O O O O O O O O O O O O o o o o o o o o @ o o O O o o O o o ",
"O O O O O O O O O O O O O O O O o o o o o o o o @ o o o O O O O o o "
};
